<svg width="160" height="34" viewBox="0 0 160 34" fill="none" xmlns="http://www.w3.org/2000/svg">
<g clip-path="url(#clip0_2997_39594)">
<path d="M37.1369 32.396C37.1369 33.252 36.4671 33.956 35.6479 33.956H29.3781C27.2345 33.956 25.3857 32.652 24.513 30.764V30.756L24.425 30.56L24.4173 30.54L24.4058 30.504L23.981 29.54L20.9647 22.664L19.4527 19.212C19.1121 18.432 18.0518 18.432 17.7111 19.212L16.1953 22.664L13.179 29.54L12.7542 30.504L12.7389 30.536L12.7312 30.556L12.6432 30.752V30.76C12.203 31.704 11.5216 32.5 10.6834 33.064C9.84507 33.624 8.84603 33.952 7.77426 33.952H1.59627C0.826889 33.952 0.145549 33.38 0.0345438 32.584C0.0154051 32.444 0.0115778 32.304 0.023061 32.172C0.038372 31.98 0.0957897 31.796 0.18 31.624L13.7685 3.15998C14.6642 1.33598 16.4824 0.0839844 18.58 0.0839844C20.6776 0.0839844 22.4958 1.33198 23.3877 3.15998L23.4451 3.27999L36.9723 31.612C37.0795 31.84 37.1369 32.092 37.1369 32.348V32.392V32.396Z" fill="white"/>
<path d="M81.5806 1.72789C81.5806 1.98389 81.5232 2.2399 81.4122 2.4679L67.6897 30.9519C67.4409 31.4319 67.127 31.8679 66.7596 32.2519C65.7835 33.2719 64.4361 33.9039 62.9471 33.9039C61.8601 33.9039 60.8534 33.5679 60.0074 32.9919C59.6936 32.7799 59.3988 32.5279 59.1347 32.2519C58.7404 31.8359 58.4036 31.3599 58.1471 30.8319L55.5366 25.3759C55.1615 24.5919 54.0897 24.5879 53.7108 25.3759L51.0237 30.9559C50.7749 31.4359 50.461 31.8719 50.0935 32.2559C49.8294 32.5319 49.5347 32.7799 49.2208 32.9959C48.3749 33.5719 47.3644 33.9079 46.2811 33.9079C44.7921 33.9079 43.4409 33.2759 42.4687 32.2559C42.0706 31.8399 41.7376 31.3639 41.4811 30.8359L27.7548 2.14789C27.6935 2.01989 27.6553 1.87588 27.6553 1.73188C27.6553 0.823885 28.3558 0.0918884 29.2247 0.0918884H35.4983C36.5854 0.0918884 37.5921 0.427894 38.4419 1.00389C38.7557 1.21589 39.0467 1.46788 39.3146 1.74388C39.7127 2.15588 40.0457 2.63589 40.3022 3.15989L45.3701 13.7559C45.7491 14.5439 46.8208 14.5439 47.1959 13.7559L48.5854 10.8479L44.5089 2.32789C44.0189 1.29989 44.7309 0.0878906 45.8333 0.0878906H52.1682C52.6773 0.0878906 53.1672 0.15989 53.6342 0.29989C54.5337 0.56389 55.3376 1.06789 55.9806 1.73989C56.3787 2.15189 56.7117 2.6319 56.9682 3.1559L62.0361 13.7519C62.4113 14.5399 63.4869 14.5399 63.862 13.7519L65.0065 11.3599L68.9299 3.1559C69.3586 2.2799 70.0055 1.53589 70.7902 0.99989C71.6361 0.42389 72.6467 0.0878906 73.7337 0.0878906H80.0074C80.8763 0.0878906 81.5768 0.823893 81.5768 1.72789H81.5806Z" fill="#3D3C3C"/>
<path d="M123.357 0.176025H119.545C118.06 0.176025 116.716 0.804024 115.74 1.82402C114.768 2.84002 114.163 4.24403 114.163 5.80003V28.28C114.163 29.832 114.764 31.236 115.74 32.256C116.712 33.272 118.056 33.904 119.545 33.904H123.357C124.222 33.904 124.923 33.172 124.923 32.268V1.81603C124.923 0.912028 124.222 0.180023 123.357 0.180023V0.176025Z" fill="white"/>
<path d="M143.575 0.176025C134.664 0.176025 127.441 7.72402 127.441 17.036C127.441 26.348 134.664 33.896 143.575 33.896C152.486 33.896 159.709 26.348 159.709 17.036C159.709 7.72402 152.486 0.176025 143.575 0.176025ZM149.374 17.356C149.206 20.704 146.473 23.276 143.269 23.1C140.065 22.924 137.604 20.068 137.773 16.72C137.941 13.372 140.674 10.8 143.878 10.976C147.082 11.152 149.543 14.008 149.374 17.356Z" fill="white"/>
<path d="M110.342 11.408C108.723 6.61597 105.087 2.81997 100.505 1.12797C98.8246 0.507972 97.014 0.167969 95.127 0.167969L85.9365 0.183972C85.0715 0.183972 84.371 0.915965 84.371 1.81996V5.78797C84.371 7.33997 84.9719 8.74397 85.948 9.76397C86.9203 10.78 88.2638 11.412 89.7528 11.412H95.1308C96.616 11.412 97.9595 12.04 98.9356 13.06C99.9078 14.076 100.513 15.48 100.513 17.036C100.513 18.592 99.9117 19.992 98.9356 21.012C97.9633 22.028 96.6198 22.66 95.1308 22.66H88.3633V22.148C88.3633 20.596 87.7624 19.192 86.7863 18.172C85.8141 17.156 84.4705 16.524 82.9815 16.524H79.1691C78.304 16.524 77.6035 17.256 77.6035 18.16V32.296C77.6035 33.2 78.304 33.932 79.1691 33.932H82.9815C83.1767 33.932 83.3719 33.92 83.5595 33.9H95.127C97.014 33.9 98.8246 33.56 100.505 32.94C102.798 32.092 104.853 30.72 106.534 28.96C108.218 27.2 109.531 25.052 110.342 22.66C110.936 20.904 111.261 19.012 111.261 17.04C111.261 15.068 110.936 13.176 110.342 11.42V11.408Z" fill="white"/>
</g>
<defs>
<clipPath id="clip0_2997_39594">
<rect width="160" height="34" fill="white"/>
</clipPath>
</defs>
</svg>
