<svg width="150" height="130" viewBox="0 0 150 130" fill="none" xmlns="http://www.w3.org/2000/svg">
<path d="M68.3938 66.131C68.0638 65.9935 67.5435 65.4186 68.3938 63.7939L70.4242 59.6071C70.4242 59.4821 70.3354 59.3321 70.2465 59.4321L68.4699 61.1943C67.5283 62.3787 66.6798 63.6322 65.9318 64.9437L63.7745 68.4557C63.826 68.4539 63.877 68.4655 63.9224 68.4895C63.9678 68.5134 64.006 68.5487 64.0331 68.5919C64.0601 68.635 64.0751 68.6845 64.0765 68.7352C64.0779 68.7859 64.0656 68.8361 64.041 68.8806L62.0613 72.1551C61.5791 72.9549 62.4547 73.5298 62.5689 73.4049C65.6653 68.4806 67.4674 68.8681 67.4674 68.8681L68.508 66.506C68.5359 66.4772 68.5556 66.4417 68.5651 66.403C68.5745 66.3643 68.5734 66.3238 68.5618 66.2857C68.5502 66.2476 68.5285 66.2132 68.499 66.186C68.4695 66.1588 68.4332 66.1399 68.3938 66.131V66.131Z" fill="white"/>
<path d="M75.4996 25C66.9844 25 58.818 28.3314 52.7969 34.2613C46.7757 40.1912 43.3931 48.2339 43.3931 56.62C43.3875 63.3714 45.5901 69.945 49.6748 75.3671C50.7191 74.9128 51.6246 74.1976 52.3017 73.2924L58.2788 65.7936C58.4034 65.6321 58.5701 65.5069 58.761 65.4311L59.6621 65.0562L69.4844 52.7706L70.9184 51.6708L73.8371 47.6589C73.9171 47.5552 74.011 47.4627 74.1163 47.384L75.3853 46.4716C75.5395 46.3646 75.7234 46.3071 75.912 46.3071C76.1006 46.3071 76.2845 46.3646 76.4386 46.4716L77.9869 47.5464C78.8112 48.1129 79.4787 48.8733 79.9285 49.7586L86.1467 60.5069C86.2494 60.7106 86.4195 60.8737 86.629 60.9693C88.0037 61.454 89.2278 62.2806 90.1822 63.3689C90.931 64.1688 94.1924 67.7558 98.7609 73.3674C99.419 74.2526 100.291 74.9615 101.299 75.4296C105.371 70.0028 107.565 63.4305 107.555 56.6825C107.564 52.5291 106.741 48.4147 105.134 44.5744C103.528 40.7341 101.169 37.2432 98.1919 34.301C95.2151 31.3589 91.6789 29.0232 87.7853 27.4273C83.8916 25.8314 79.7169 25.0066 75.4996 25V25ZM52.0479 58.3697L49.9667 57.6948L48.6976 59.4446V57.2824L46.6164 56.62L48.6976 55.9576V53.7455L49.9667 55.4952L52.0479 54.8328L50.7788 56.57L52.0479 58.3697ZM51.5656 65.4186L50.8804 67.4683L50.2078 65.4186H47.9616L49.7255 64.1688L49.053 62.1191L50.8169 63.3689L52.5936 62.1191L51.9083 64.1688L53.6849 65.4186H51.5656ZM51.9717 49.0962L52.657 51.1459L50.8804 49.8961L49.1164 51.1459L49.789 49.0962L48.025 47.8464H50.1189L50.7915 45.7967L51.4768 47.8464H53.6595L51.9717 49.0962ZM55.487 44.4594L54.2179 42.7097L52.1367 43.3846L53.4057 41.6349L52.1367 39.8976L54.2179 40.56L55.487 38.8103V40.9725L57.5682 41.6349L55.487 42.2973V44.4594ZM60.9692 36.9606L60.2839 39.0103L59.6113 36.9606H57.4286L59.1925 35.7108L58.5199 33.6611L60.2839 34.9109L62.0605 33.6611L61.3753 35.7108L63.1519 36.9606H60.9692ZM67.86 33.4987L66.591 35.2484V33.0862L64.5097 32.4238L66.591 31.7614V29.5993L67.86 31.349L69.9412 30.6866L68.6722 32.4238L69.9412 34.1735L67.86 33.4987ZM76.5909 31.524L77.2762 33.5736L75.4996 32.3238L73.7356 33.5736L74.4082 31.524L72.6315 30.2742H74.827L75.4996 28.2245L76.1721 30.2742H78.3676L76.5909 31.524ZM84.4335 33.0862V35.2484L83.1645 33.4987L81.0833 34.1735L82.3523 32.4238L81.0833 30.6866L83.1137 31.249L84.3828 29.4993V31.6615L86.464 32.3238L84.4335 33.0862ZM98.9513 54.9328L101.032 55.5952L102.301 53.8455V56.0076L104.383 56.67L102.301 57.3324V59.4946L101.032 57.7448L98.9513 58.4197L100.22 56.67L98.9513 54.9328ZM90.7152 39.0103L90.0427 36.9606H87.8472L89.6239 35.7108L88.9513 33.6611L90.7152 34.9109L92.4919 33.6611L91.8066 35.7108L93.5833 36.9606H91.3878L90.7152 39.0103ZM95.5122 44.5094V42.3473L93.431 41.6849L95.5122 41.0225V38.8603L96.7812 40.61L98.8624 39.9477L97.5934 41.6849L98.8624 43.4346L96.7812 42.7597L95.5122 44.5094ZM99.4462 47.8714L100.119 45.8217L100.791 47.8714H102.987L101.21 49.1212L101.895 51.1709L100.119 49.9211L98.3548 51.1709L99.0274 49.1212L97.2508 47.8714H99.4462ZM100.791 65.4686L100.119 67.5183L99.4462 65.4686H97.2508L99.0274 64.2188L98.3548 62.1691L100.119 63.4189L101.895 62.1691L101.21 64.2188L102.987 65.4686H100.791Z" fill="white"/>
<path d="M87.0738 74.8923C87.236 74.5922 87.3208 74.2574 87.3208 73.9175C87.3208 73.5775 87.236 73.2427 87.0738 72.9426L85.6525 69.1932C85.4494 68.7183 85.8809 68.4308 86.1601 68.7433C87.3546 70.1079 88.4568 71.5482 89.4596 73.0551L90.7921 75.2173C91.9215 75.2922 95.0687 75.3797 98.1017 75.3797C97.7952 75.0794 97.5111 74.7578 97.2514 74.4174C92.0865 68.1684 88.8124 64.6064 88.787 64.5689C88.1653 63.8189 87.3624 63.2345 86.452 62.8692L86.0839 62.7067V63.6566C86.0839 63.7941 85.9317 63.8565 85.8555 63.6566L78.2413 50.5212C77.925 49.9025 77.4586 49.3701 76.8835 48.9714L76.1347 48.459L72.518 56.6827C72.648 56.6852 72.7754 56.7189 72.8892 56.7809C73.003 56.8429 73.0997 56.9313 73.171 57.0384C73.2422 57.1455 73.2859 57.2681 73.2981 57.3956C73.3104 57.5231 73.2909 57.6516 73.2414 57.77L69.8911 65.3938H72.9622C74.1509 65.3918 75.3282 65.6212 76.4266 66.0687L77.2388 66.3936C77.2388 66.3936 74.7896 71.3929 74.7896 73.8925C74.7929 74.37 74.8612 74.845 74.9926 75.3047H80.6271L80.3606 73.7425C82.5747 74.2493 84.816 74.6332 87.0738 74.8923V74.8923Z" fill="white"/>
<path d="M43.6215 82.9158C43.6215 77.8291 38.1393 75.417 31.6292 75.417C24.6622 75.417 18.2663 78.454 15.9186 83.1658C15.2709 84.4244 14.936 85.8166 14.9414 87.2276C14.908 88.4441 15.2486 89.6421 15.9186 90.6646C16.5454 91.482 17.3723 92.1297 18.3221 92.5472C19.2719 92.9646 20.3137 93.1382 21.3501 93.0517C24.5861 93.0517 27.1495 91.302 27.1495 88.265C27.1525 88.1438 27.1287 88.0235 27.0798 87.9123C27.031 87.8011 26.9582 87.7016 26.8665 87.6208C26.7748 87.54 26.6663 87.4798 26.5487 87.4442C26.4311 87.4087 26.307 87.3988 26.1851 87.4151C25.3729 87.4151 25.1571 87.9775 25.1825 88.265C25.2625 88.8068 25.2209 89.3594 25.0608 89.8837C24.9008 90.4081 24.626 90.8916 24.2559 91.3001C23.8858 91.7087 23.4293 92.0325 22.9185 92.2488C22.4077 92.465 21.855 92.5684 21.2993 92.5518C18.4313 92.5518 17.2384 90.1522 17.2384 87.5526C17.2384 82.2909 21.2612 78.804 25.449 77.2917C27.4089 76.5712 29.4865 76.2111 31.5784 76.2294C36.3119 76.2294 40.1952 78.0291 40.1952 82.8408C40.1318 84.8145 39.3294 86.6953 37.9424 88.1212C36.5555 89.5472 34.6819 90.4175 32.6825 90.5646L32.8475 90.0272C33.5612 87.0072 34.7562 84.1177 36.3881 81.466C36.4896 81.3286 36.6546 81.0911 36.8449 80.8536L36.6038 80.5787C36.2456 80.789 35.9022 81.0228 35.5759 81.2786C27.7206 87.3151 27.4795 104.287 17.0227 104.287C16.662 104.292 16.3016 104.271 15.944 104.225C15.0073 104.139 14.1398 103.702 13.521 103.004C12.9021 102.307 12.5793 101.401 12.6191 100.476C12.6191 100.076 12.7587 99.5382 12.7587 99.2257C12.7621 99.0895 12.7382 98.954 12.6883 98.8268C12.6385 98.6997 12.5637 98.5835 12.4682 98.4848C12.3728 98.3862 12.2585 98.307 12.132 98.2519C12.0055 98.1967 11.8691 98.1666 11.7308 98.1634H11.6039C10.6775 98.1634 10.3349 98.9008 10.2714 99.9381C10.1953 102.925 12.4415 104.675 15.9186 105C16.2993 105 16.68 105 17.0861 105C25.2587 105 30.2586 98.9133 32.3906 91.5395C33.4695 91.4079 34.5351 91.1863 35.5759 90.8771C39.3576 89.8272 43.6215 87.3276 43.6215 82.9158Z" fill="white"/>
<path d="M121.374 84.6909H118.506L117.859 86.1782L116.73 88.6778H115.461L115.055 89.5152H116.438L114.763 93.1771C113.57 95.6767 111.692 98.2638 110.626 98.2638C110.385 98.2638 110.232 98.1763 110.232 97.9388C110.277 97.5506 110.393 97.1737 110.575 96.8265C110.905 96.0516 111.463 94.9143 111.844 94.0894C112.57 92.8533 113.092 91.5119 113.392 90.1151C113.405 89.8877 113.367 89.6603 113.281 89.4487C113.195 89.2372 113.064 89.0464 112.897 88.8896C112.729 88.7327 112.529 88.6136 112.31 88.5403C112.091 88.4671 111.858 88.4415 111.628 88.4653C110.927 88.5264 110.245 88.7261 109.624 89.0525C109.002 89.3789 108.454 89.8253 108.012 90.365L108.722 88.6778H105.956L103.76 93.677C102.872 95.4142 101.07 98.3138 99.9533 98.3138C99.7121 98.3138 99.6106 98.1763 99.6106 97.9388C99.6357 97.728 99.6912 97.5218 99.7756 97.3264C99.8771 97.114 101.197 94.0769 101.197 94.0769L103.583 88.6778H100.664L98.3416 93.927C97.6309 95.5642 95.8035 98.3138 94.636 98.3138C94.5876 98.319 94.5387 98.3146 94.492 98.3011C94.4454 98.2875 94.4019 98.265 94.3641 98.2348C94.3264 98.2045 94.295 98.1672 94.272 98.125C94.249 98.0828 94.2347 98.0365 94.2299 97.9888V97.8889C94.2954 97.4804 94.4238 97.0843 94.6106 96.714L95.8797 94.0769L98.4177 88.6778H95.5243L94.9533 89.9276C94.7747 90.4049 94.4657 90.8244 94.0604 91.1398C93.655 91.4551 93.1692 91.6541 92.6563 91.7148C92.475 91.739 92.2904 91.7119 92.1241 91.6367C91.9578 91.5614 91.8167 91.4411 91.7172 91.2899C91.7149 90.9058 91.6323 90.5262 91.4746 90.1749C91.3169 89.8236 91.0875 89.508 90.8006 89.2477C90.5137 88.9875 90.1755 88.7881 89.8071 88.6621C89.4386 88.5361 89.0478 88.4862 88.6589 88.5153C87.5913 88.5433 86.5492 88.8422 85.6333 89.383C84.7173 89.9238 83.9586 90.6882 83.4305 91.6023C82.6921 92.7729 82.1119 94.0333 81.7046 95.3517C80.6767 97.0265 79.598 98.3263 78.7478 98.3263C78.532 98.3263 78.3797 98.2013 78.3797 97.9138C78.4604 97.5172 78.5882 97.1313 78.7604 96.764L80.6513 92.8021C81.1305 91.9262 81.4322 90.9669 81.5396 89.9776C81.5458 89.7764 81.5086 89.5761 81.4305 89.3901C81.3524 89.2041 81.2351 89.0364 81.0864 88.8982C80.9377 88.7601 80.761 88.6545 80.5679 88.5885C80.3748 88.5225 80.1696 88.4976 79.966 88.5153C79.189 88.5687 78.4313 88.7781 77.7395 89.1306C77.0476 89.4831 76.4363 89.9712 75.9432 90.565C75.9687 90.3616 75.9687 90.156 75.9432 89.9526C75.9767 89.7553 75.9617 89.553 75.8994 89.3626C75.8371 89.1722 75.7293 88.9994 75.585 88.8586C75.4408 88.7177 75.2644 88.6131 75.0705 88.5533C74.8767 88.4936 74.6711 88.4806 74.4711 88.5153C73.741 88.5778 73.0328 88.7929 72.3937 89.1463C71.7547 89.4998 71.1996 89.9835 70.7655 90.565L71.527 88.7278H68.9001L66.6666 93.727C65.6133 96.0641 63.9255 98.3763 62.961 98.3763C62.7453 98.3763 62.6057 98.2513 62.6057 97.9638C62.7496 97.272 62.9798 96.6004 63.291 95.9641L66.2478 89.3902C66.4508 88.8903 65.0422 88.5903 63.2529 88.5903C61.3734 88.6851 59.5829 89.4081 58.1768 90.64C57.6158 91.2284 56.9064 91.6596 56.1209 91.8898C55.9306 91.8898 55.8544 91.7898 55.8544 91.6773C55.8544 91.2774 56.8316 90.1401 56.8316 89.2652C56.8316 88.8653 56.6159 88.6153 56.0702 88.6153C54.7774 88.8635 53.6293 89.5875 52.8595 90.64L53.6209 88.8278H51.0829L48.8494 93.827C47.7961 96.1641 46.0575 98.5887 45.0423 98.5887C44.8266 98.5887 44.687 98.4762 44.687 98.1888C44.8351 97.4594 45.0827 96.7531 45.423 96.0891L48.3672 89.4902C48.5829 88.9903 47.1743 88.6903 45.3849 88.6903C44.0896 88.7343 42.8197 89.0569 41.6644 89.6355C40.509 90.2142 39.4963 91.0348 38.6971 92.0398C37.2921 93.6617 36.4087 95.6586 36.1591 97.7764C36.115 98.0682 36.1392 98.3661 36.2299 98.6473C36.3205 98.9285 36.4751 99.1856 36.682 99.399C36.8889 99.6124 37.1426 99.7765 37.4236 99.8786C37.7047 99.9808 38.0057 100.018 38.3037 99.9885C39.0356 99.906 39.7405 99.6677 40.3694 99.29C40.9983 98.9123 41.5363 98.4043 41.9459 97.8014C41.8998 97.9865 41.8658 98.1743 41.8443 98.3638C41.8443 99.3011 42.225 99.9885 43.4052 99.9885C44.1067 99.8748 44.7776 99.6224 45.3773 99.2465C45.9771 98.8706 46.4934 98.379 46.8951 97.8014L46.0068 99.801H48.8494L51.6032 93.652C52.5169 91.6398 53.5448 90.6025 53.824 90.6025C54.1032 90.6025 53.9763 90.6025 53.9763 90.7275C53.9763 90.8524 53.5448 91.5023 53.5448 91.9773C53.5448 92.4522 53.824 92.9021 54.5981 92.9021C55.2693 92.8517 55.9141 92.6228 56.4636 92.2397C55.1361 93.8003 54.3101 95.7146 54.0905 97.7389C54.0414 98.029 54.06 98.3263 54.145 98.6083C54.2299 98.8902 54.379 99.1494 54.5808 99.3662C54.7826 99.583 55.0318 99.7518 55.3097 99.8596C55.5875 99.9674 55.8867 100.011 56.1844 99.9885C57.6945 99.9885 59.1032 98.5762 59.8773 97.6264C59.8637 97.847 59.8637 98.0682 59.8773 98.2888C59.8542 98.5028 59.877 98.7193 59.9442 98.9241C60.0114 99.1289 60.1216 99.3175 60.2675 99.4778C60.4135 99.638 60.592 99.7663 60.7914 99.8542C60.9909 99.9422 61.2069 99.988 61.4255 99.9885C62.6945 99.9885 63.5828 99.2636 64.7757 97.8264L63.9001 99.801H66.7681L69.4077 93.927C70.5498 91.4274 72.1107 90.0151 72.8721 90.0151C72.9182 90.0099 72.9648 90.014 73.0092 90.027C73.0535 90.0401 73.0948 90.0619 73.1303 90.0911C73.1659 90.1203 73.1951 90.1563 73.2162 90.197C73.2372 90.2376 73.2497 90.282 73.2529 90.3275C73.2208 90.6483 73.1214 90.959 72.961 91.2399L69.1539 99.851H72.098L74.7884 93.8645C75.9305 91.2899 77.1995 90.0401 78.164 90.0401C78.4432 90.0401 78.5701 90.1776 78.5701 90.49C78.5417 90.8161 78.4513 91.1341 78.3036 91.4274L75.7655 96.8515C75.5288 97.3737 75.3829 97.9314 75.3341 98.5012C75.3341 99.3261 75.7909 100.063 77.0853 100.063C78.7604 100.063 80.0295 98.8137 81.4635 96.9515V97.3514C81.4661 97.7466 81.5533 98.1367 81.7194 98.4964C81.8854 98.8561 82.1265 99.1774 82.4271 99.4392C82.7276 99.701 83.0808 99.8974 83.4636 100.016C83.8464 100.134 84.2502 100.172 84.6487 100.126C87.2883 100.126 89.4203 98.3388 90.702 95.4892C91.1961 94.4869 91.5136 93.4093 91.6411 92.3022C91.9301 92.4501 92.2555 92.5151 92.5802 92.4897C93.0225 92.5004 93.46 92.3969 93.8492 92.1897L93.3924 93.1521C92.8594 94.2394 92.2883 95.4392 91.8315 96.4516C91.5455 97.0525 91.3776 97.7013 91.3365 98.3638C91.3114 98.5964 91.3387 98.8316 91.4166 99.0526C91.4946 99.2736 91.6211 99.4748 91.7872 99.642C91.9534 99.8092 92.155 99.9382 92.3776 100.02C92.6002 100.101 92.8384 100.133 93.0751 100.113C93.8908 99.9758 94.6681 99.6711 95.3567 99.219C96.0452 98.7669 96.6298 98.1775 97.0726 97.4889C96.9913 97.8078 96.9487 98.135 96.9457 98.4637C96.9457 99.3011 97.2121 100.113 98.405 100.113C99.801 100.113 100.88 99.1137 101.933 97.8638L101.045 99.851H103.938L106.26 94.6644C107.529 91.7398 108.9 89.9651 110.067 89.9651C110.169 89.9646 110.267 90.0016 110.342 90.0687C110.417 90.1358 110.464 90.2281 110.474 90.3275V90.39C110.146 91.502 109.686 92.5718 109.103 93.577C108.507 94.8268 108.05 95.7517 107.745 96.4766C107.455 97.0944 107.283 97.7596 107.237 98.4387C107.223 98.6513 107.257 98.8643 107.335 99.0629C107.413 99.2615 107.534 99.4409 107.69 99.5885C107.846 99.7361 108.033 99.8484 108.237 99.9175C108.442 99.9866 108.659 100.011 108.875 99.9885C110.562 99.9885 112.25 98.3888 113.164 97.1889C112.96 97.7642 112.849 98.3672 112.834 98.9762C112.792 99.3036 112.824 99.6362 112.928 99.9499C113.032 100.264 113.206 100.55 113.437 100.79C113.668 101.029 113.95 101.215 114.263 101.333C114.575 101.452 114.911 101.501 115.245 101.476C116.186 101.471 117.101 101.174 117.859 100.626C118.931 99.8112 119.854 98.8221 120.588 97.7014L120.08 97.2264C119.468 98.17 118.711 99.0134 117.834 99.726C117.413 100.065 116.892 100.263 116.349 100.288C115.753 100.288 115.372 99.976 115.372 99.2261C115.496 98.139 115.8 97.0792 116.273 96.0891C116.273 96.0891 117.085 94.3269 117.834 92.6522C118.456 91.2274 119.103 89.8651 119.204 89.5777H121.095L121.476 88.7403H119.611L121.374 84.6909ZM39.7124 98.2888C39.3063 98.2888 39.0144 98.1513 39.0144 97.6264C39.396 95.4928 40.3119 93.4867 41.6794 91.7898C42.084 91.1297 42.6383 90.5707 43.2987 90.1566C43.9592 89.7425 44.7079 89.4845 45.4865 89.4027L43.6591 93.4146C42.3012 96.4266 40.8164 98.2888 39.7124 98.2888ZM57.6184 98.2888C57.5247 98.3051 57.4285 98.2995 57.3374 98.2726C57.2463 98.2457 57.1629 98.1981 57.0938 98.1337C57.0247 98.0693 56.9719 97.9899 56.9396 97.9018C56.9073 97.8137 56.8964 97.7194 56.9077 97.6264C57.2835 95.4934 58.1953 93.4869 59.56 91.7898C59.9647 91.1297 60.5189 90.5707 61.1794 90.1566C61.8398 89.7425 62.5886 89.4845 63.3671 89.4027L61.5397 93.4146C60.1565 96.5016 58.7478 98.2888 57.6184 98.2888ZM89.4584 90.49C89.0029 93.1763 87.9641 95.7342 86.4127 97.9888C85.7655 98.8887 85.2198 99.1387 84.7376 99.1387C84.2553 99.1387 83.8746 98.6012 83.9762 97.8014C84.4493 95.3104 85.4527 92.9464 86.9203 90.8649C87.6563 89.8526 88.1893 89.4277 88.735 89.4277C89.2807 89.4277 89.4584 89.9026 89.4584 90.49Z" fill="white"/>
<path d="M134.104 88.6778L136.731 82.6787H133.621L130.982 88.6778H124.345L123.241 91.1899H129.878L127.238 97.1888H130.36L133 91.1899H139.624L140.728 88.6778H134.104Z" fill="white"/>
</svg>
