<svg width="74" height="20" viewBox="0 0 74 20" fill="none" xmlns="http://www.w3.org/2000/svg">
<g clip-path="url(#clip0_18621_1629)">
<path d="M12.0199 0C10.0262 0 8.00099 0.886565 5.4057 2.88022V0.506654H0.5V19.4934H5.72225V7.68973C8.00089 5.88606 9.04456 5.31602 9.89951 5.31602C10.9116 5.31602 11.5766 5.9493 11.5766 7.53131V19.4934H16.7976V7.65805C19.0762 5.88604 20.0896 5.31602 20.975 5.31602C21.9882 5.31602 22.6519 5.9493 22.6519 7.53131V19.4934H27.873V5.69608C27.873 1.42378 25.436 0 23.0941 0C21.1004 0 19.075 0.823217 16.4164 2.84854C15.5639 0.727005 13.6969 0 12.0199 0ZM38.476 0C33.2866 0 28.9825 4.46227 28.9825 9.99993C28.9825 15.5376 33.2866 20 38.476 20C41.0396 20 43.255 19.0514 44.9649 16.9932V19.4934H49.9336V0.506654H44.9649V3.00682C43.255 0.948614 41.0396 0 38.476 0ZM50.8507 0.506654C53.0026 3.86045 55.4394 6.86718 58.2879 9.87391C55.4394 13.0061 53.0026 16.2662 50.8507 19.4934H57.148C58.6349 17.0882 60.3119 14.9046 62.2433 12.8478C64.1419 14.9046 65.7237 17.0882 67.2118 19.4934H73.5724C71.3889 16.1712 69.0154 13.0061 66.167 9.87391C68.9837 6.86718 71.3889 3.76668 73.5724 0.506654H67.3386C65.7883 2.91179 64.1114 4.93694 62.2433 6.93046C60.3448 4.93694 58.6678 2.91179 57.148 0.506654H50.8507ZM39.2663 4.39904C42.367 4.39904 44.8674 6.89923 44.8674 9.99993C44.8674 13.1006 42.367 15.601 39.2663 15.601C36.1656 15.601 33.6653 13.1018 33.6653 9.99993C33.6653 6.89801 36.1656 4.39904 39.2663 4.39904ZM39.2663 5.6644C36.8927 5.6644 34.9623 7.59464 34.9624 9.99993C34.9623 12.4052 36.8927 14.3356 39.2663 14.3356C41.64 14.3356 43.5702 12.4052 43.5702 9.99993C43.5702 7.59464 41.64 5.6644 39.2663 5.6644Z" fill="#002BE7"/>
</g>
<defs>
<clipPath id="clip0_18621_1629">
<rect width="73.0724" height="20" fill="white" transform="translate(0.5)"/>
</clipPath>
</defs>
</svg>
